<svg t="1703591330079" class="icon" viewBox="0 0 1024 1024" version="1.1"
    xmlns="http://www.w3.org/2000/svg" p-id="2683" width="200" height="200">
    <path d="M192 234.666667h640v64H192z" fill="#424242" p-id="2684"></path>
    <path d="M85.333333 533.333333h853.333334v-149.333333c0-46.933333-38.4-85.333333-85.333334-85.333333H170.666667c-46.933333 0-85.333333 38.4-85.333334 85.333333v149.333333z" fill="#616161" p-id="2685"></path>
    <path d="M170.666667 768h682.666666c46.933333 0 85.333333-38.4 85.333334-85.333333v-170.666667H85.333333v170.666667c0 46.933333 38.4 85.333333 85.333334 85.333333z" fill="#424242" p-id="2686"></path>
    <path d="M853.333333 384m-21.333333 0a21.333333 21.333333 0 1 0 42.666667 0 21.333333 21.333333 0 1 0-42.666667 0Z" fill="#00E676" p-id="2687"></path>
    <path d="M234.666667 85.333333h554.666666v213.333334H234.666667z" fill="#90CAF9" p-id="2688"></path>
    <path d="M800 661.333333h-576c-17.066667 0-32-14.933333-32-32s14.933333-32 32-32h576c17.066667 0 32 14.933333 32 32s-14.933333 32-32 32z" fill="#242424" p-id="2689"></path>
    <path d="M234.666667 661.333333h554.666666v234.666667H234.666667z" fill="#90CAF9" p-id="2690"></path>
    <path d="M234.666667 618.666667h554.666666v42.666666H234.666667z" fill="#42A5F5" p-id="2691"></path>
    <path d="M341.333333 704h362.666667v42.666667H341.333333zM341.333333 789.333333h277.333334v42.666667H341.333333z" fill="#1976D2" p-id="2692"></path>
</svg>